<svg width="667" height="667" viewBox="0 0 667 667" fill="none" xmlns="http://www.w3.org/2000/svg">
<g clip-path="url(#clip0_46_537)">
<path d="M0 666.667H666.667V6.00815e-05H0V666.667Z" fill="#F43059"/>
<path d="M435.597 165.426C435.597 165.426 408.145 83.0711 368.493 69.3458C328.841 55.6191 190.821 102.135 182.433 107.472C174.045 112.81 131.342 191.352 153.457 259.98C153.457 259.98 161.082 302.683 160.32 329.372C159.557 356.062 178.621 444.516 216.748 486.456C254.874 528.395 366.206 516.195 389.845 508.57C413.484 500.944 470.674 386.563 470.674 386.563V327.847L458.473 288.195C458.473 288.195 442.46 221.091 442.46 207.366C442.46 193.64 443.222 179.151 443.222 179.151L439.41 168.476" fill="#E9A787"/>
<path d="M471.707 324.11C477.67 298.187 479.353 271.286 476.666 244.822C475.946 237.716 473.943 229.36 467.255 226.855C460.598 224.359 453.093 229.834 450.783 236.559C448.474 243.284 449.903 250.655 451.418 257.603C454.319 270.901 457.465 284.147 460.609 297.389C463.438 309.312 466.602 321.858 475.15 330.636" fill="#E9A787"/>
<path d="M473.047 445.641C469.718 430.257 470.499 414.003 475.288 399.009C476.25 396.001 478.619 392.38 481.612 393.385C483.191 393.915 484.055 395.567 484.758 397.076C496.039 421.293 506.219 446.025 515.252 471.169C520.046 484.512 524.4 499.832 517.703 512.328C516.751 509.291 515.712 506.112 513.394 503.932C511.075 501.752 507.043 501.043 504.788 503.289C502.422 505.647 503.204 509.565 503.987 512.813C506.566 523.532 507.262 534.703 506.032 545.66C505.747 548.213 505.264 550.944 503.443 552.756C500.734 555.449 495.999 554.937 492.926 552.669C489.854 550.401 488.042 546.851 486.339 543.432C482.988 558.477 478.58 573.287 473.158 587.715C461.892 584.711 460.018 565.573 448.386 564.775C442.599 564.377 437.614 569.437 435.928 574.988C434.244 580.537 435.018 586.488 435.508 592.268C435.76 595.231 435.696 598.737 433.291 600.485C430.53 602.491 426.42 600.637 424.562 597.775C422.703 594.913 422.31 591.379 421.298 588.119C420.286 584.86 418.198 581.481 414.85 580.817C410.044 579.863 406.083 585.252 405.956 590.149C405.828 595.047 408.059 599.671 408.927 604.492C409.795 609.313 408.662 615.268 404.182 617.251C398.858 619.605 393.304 614.935 388.856 611.179C384.41 607.421 376.92 604.587 373.475 609.279C369.863 614.199 374.71 623.093 369.61 626.447C366.615 628.416 362.476 626.388 360.282 623.555C358.087 620.72 356.935 617.155 354.543 614.485C352.152 611.815 347.595 610.407 345.087 612.967C343.019 615.075 343.495 618.591 342.127 621.208C339.499 626.237 331.763 625.411 327.196 622.043C322.628 618.675 319.284 613.581 314.082 611.315C311.643 610.253 308.954 609.895 306.47 608.945C298.312 605.828 293.755 596.821 292.807 588.141C290.92 570.871 300.18 554.452 310.196 540.256C342.127 494.997 385.443 457.839 435.032 433.164" fill="#E9A787"/>
<path d="M300.246 211.56L279.467 241.298L286.52 235.77L279.848 243.014L288.998 285.908L308.443 266.272C308.443 266.272 355.72 273.897 378.978 265.509C378.978 265.509 338.563 271.42 310.922 260.362C310.922 260.362 310.35 254.072 318.928 253.118C318.928 253.118 342.376 259.79 364.49 248.733L394.991 250.068C394.991 250.068 375.356 230.814 346.951 231.768C346.951 231.768 337.419 221.473 348.095 216.516C358.771 211.56 340.279 211.75 340.279 211.75" fill="#CB8B66"/>
<path d="M208.359 239.011L235.43 254.834L268.029 249.306L237.335 256.359L242.293 289.53L228.757 282.858C228.757 282.858 211.029 297.536 192.727 302.683C192.727 302.683 221.703 289.72 230.663 276.756C230.663 276.756 223.61 275.232 215.603 279.616C215.603 279.616 203.022 286.098 188.533 284.954L172.901 289.72C172.901 289.72 171.377 269.512 191.393 261.506C191.393 261.506 181.861 253.69 170.805 257.694L183.577 248.734" fill="#CB8B66"/>
<path d="M229.52 336.616C229.52 336.616 223.42 359.492 248.393 362.734C248.393 362.734 221.895 357.014 234.476 327.847L231.999 326.703C231.999 326.703 219.035 346.53 223.801 368.452C223.801 368.452 221.132 350.723 229.52 336.616" fill="#CB8B66"/>
<path d="M306.155 322.51C306.155 322.51 319.309 338.714 305.393 353.011C305.393 353.011 315.497 335.663 303.295 322.319C303.295 322.319 302.723 318.126 305.965 317.363C309.206 316.6 328.078 346.53 328.078 346.53C328.078 346.53 313.971 327.084 306.155 322.51" fill="#CB8B66"/>
<path d="M237.145 353.202C237.145 353.202 237.336 350.342 240.768 349.198C240.768 349.198 258.305 364.068 274.509 351.676C274.509 351.676 276.225 345.767 285.376 343.098C294.527 340.43 299.673 348.818 299.673 348.818C299.673 348.818 296.052 355.108 291.285 352.63C286.52 350.151 277.751 349.579 274.7 353.774C274.7 353.774 268.409 358.539 255.256 357.206C255.256 357.206 245.343 362.162 237.145 353.202" fill="#CB8B66"/>
<path d="M274.129 407.914C274.129 407.914 264.597 404.101 258.878 404.291C253.159 404.482 238.098 420.495 238.098 420.495C238.098 420.495 230.663 423.355 229.901 426.215C229.139 429.074 237.526 428.313 237.526 428.313C237.526 428.313 246.677 441.657 276.607 442.991C306.537 444.326 334.37 414.967 334.37 414.967C334.37 414.967 345.235 414.014 349.811 418.018C349.811 418.018 348.667 409.63 344.663 406.961C340.661 404.291 331.319 407.914 331.319 407.914C331.319 407.914 296.051 394.761 278.513 405.817" fill="#CB8B66"/>
<path d="M422.888 143.058C422.888 143.058 407.129 102.389 397.979 94.7632C388.828 87.1379 329.349 67.3126 329.349 67.3126L311.557 70.8712C311.557 70.8712 386.285 105.947 384.761 208.637L398.995 215.245C398.995 215.245 431.784 224.142 435.597 324.797C439.895 438.273 353.243 456.717 353.243 456.717C353.243 456.717 351.209 468.918 366.46 482.135C381.711 495.353 455.932 475.526 466.607 455.191C477.283 434.858 477.283 359.619 477.283 359.619L468.64 317.934C468.64 317.934 459.491 295.566 459.491 294.041C459.491 292.517 446.781 212.703 445.256 204.062C443.731 195.419 434.58 150.175 434.58 150.175" fill="#CB8B66"/>
<path d="M334.433 409.948C334.433 409.948 352.734 450.617 322.233 464.85C291.73 479.085 349.176 485.693 349.176 485.693C349.176 485.693 368.493 445.025 369.001 438.924C369.51 432.824 355.784 406.897 355.784 406.897" fill="#CB8B66"/>
<path d="M236.319 424.69C236.319 424.69 228.186 459.767 257.162 460.783C286.139 461.801 275.463 490.777 255.637 488.235C235.811 485.694 214.969 477.051 216.493 467.393C218.018 457.734 223.61 429.774 223.61 429.774C223.61 429.774 223.61 424.182 236.319 424.69" fill="#CB8B66"/>
<path d="M453.389 255.406C453.389 255.406 458.981 238.63 468.64 236.088C478.299 233.546 476.773 276.248 476.265 294.55C475.757 312.851 471.691 318.951 471.691 318.951C471.691 318.951 473.216 281.84 469.657 269.64C466.099 257.439 463.556 265.572 463.556 265.572C463.556 265.572 472.707 291.499 464.065 304.208C464.065 304.208 454.407 271.674 453.389 255.406Z" fill="#CB8B66"/>
<path d="M199.209 100.61C199.209 100.61 155.744 161.614 177.096 243.967L168.708 253.118C168.708 253.118 157.269 389.614 217.51 456.716L206.072 474.255L186.246 437.654C186.246 437.654 158.032 381.226 160.32 336.235C162.608 291.246 151.932 254.643 146.593 234.818C141.256 214.991 153.457 130.348 177.858 105.184C202.26 80.0218 207.597 80.0218 207.597 80.0218" fill="#FABDA2"/>
<path d="M180.664 167.812C180.664 167.812 181.068 167.523 181.827 166.981C182.198 166.699 182.676 166.383 183.266 166.047C183.84 165.689 184.51 165.292 185.298 164.919C188.388 163.309 193.186 161.729 199.099 160.848C204.999 159.891 211.97 159.525 219.258 158.036C226.551 156.585 234.15 154.233 241.662 151.665C249.2 149.16 256.696 146.481 263.867 144.403C271.031 142.305 277.872 140.853 283.808 140.148C286.778 139.803 289.516 139.657 291.943 139.636C294.371 139.625 296.483 139.737 298.219 139.881C299.951 140.055 301.308 140.212 302.227 140.377C303.147 140.52 303.639 140.596 303.639 140.596C303.639 140.596 303.146 140.532 302.222 140.411C301.302 140.267 299.942 140.141 298.208 140.009C296.474 139.907 294.364 139.844 291.948 139.911C289.531 139.995 286.811 140.204 283.858 140.556C277.955 141.305 271.155 142.805 264.031 144.955C256.898 147.083 249.435 149.823 241.904 152.387C234.359 154.897 226.714 157.199 219.366 158.599C212.02 160.037 205.039 160.345 199.16 161.253C193.274 162.1 188.467 163.48 185.355 165.033C184.56 165.387 183.886 165.767 183.304 166.109C182.71 166.429 182.223 166.735 181.846 167.009C181.075 167.533 180.664 167.812 180.664 167.812Z" fill="#CB8B66"/>
<path d="M182.313 191.413C182.313 191.413 182.733 191.104 183.521 190.525C184.321 189.964 185.508 189.152 187.097 188.249C190.254 186.421 195.053 184.232 201.122 182.621C207.176 180.95 214.422 179.865 222.144 178.673C226.002 178.064 229.989 177.396 233.974 176.489C237.976 175.566 241.964 174.418 245.933 173.144C253.877 170.644 261.706 167.737 269.202 165.461C276.686 163.168 283.881 161.614 290.129 161.04C296.381 160.408 301.638 160.857 305.236 161.456C307.036 161.758 308.441 162.062 309.384 162.324C310.329 162.572 310.833 162.704 310.833 162.704C310.833 162.704 310.326 162.582 309.376 162.357C308.429 162.117 307.018 161.845 305.216 161.582C303.414 161.306 301.205 161.134 298.67 161.057C296.134 161.024 293.273 161.136 290.169 161.448C283.954 162.069 276.821 163.665 269.372 166.012C261.914 168.336 254.117 171.305 246.162 173.869C242.18 175.114 238.134 176.246 234.126 177.137C230.096 178.021 226.101 178.658 222.232 179.24C214.493 180.373 207.264 181.401 201.228 183.017C195.185 184.588 190.342 186.585 187.158 188.36C185.554 189.226 184.353 190.009 183.541 190.553C182.74 191.114 182.313 191.413 182.313 191.413Z" fill="#CB8B66"/>
<path d="M439.649 214.341C458.284 300.686 450.164 392.61 416.684 474.351C437.179 441.57 450.104 404.729 462.867 368.234C467.308 355.533 471.809 342.445 471.2 329.003C469.933 301.022 446.867 276.694 448.839 248.754" fill="#A46346"/>
<path d="M316.831 251.212C316.831 251.212 303.106 252.356 296.814 259.6C296.814 259.6 295.862 252.165 307.108 248.161C307.108 248.161 312.827 241.298 321.215 239.01C321.215 239.01 308.824 239.01 299.674 248.733C299.674 248.733 305.392 236.152 334.37 233.101C363.346 230.052 385.079 245.684 385.079 245.684C385.079 245.684 374.022 247.589 363.536 246.828C363.536 246.828 341.423 256.93 316.831 251.212Z" fill="#A46346"/>
<path d="M236.573 267.416C236.573 267.416 229.329 274.85 219.035 276.185C219.035 276.185 203.403 282.666 188.724 282.476L174.999 287.624C174.999 287.624 172.901 268.369 209.503 261.125C209.503 261.125 186.436 263.984 175.38 278.664C175.38 278.664 179.383 265.318 202.831 259.028C226.279 252.737 235.048 260.362 235.048 260.362C235.048 260.362 227.995 259.218 222.657 260.172C222.657 260.172 233.523 260.744 236.573 267.416" fill="#A46346"/>
<path d="M453.707 255.024C453.707 255.024 457.711 240.346 466.479 236.532C475.249 232.72 478.109 261.124 477.918 275.042C477.727 288.958 476.393 298.108 476.393 298.108C476.393 298.108 475.058 262.84 472.199 252.355C469.339 241.871 462.286 243.395 455.042 263.222C455.042 263.222 451.61 260.552 453.707 255.024" fill="#A46346"/>
<path d="M236.828 424.69C236.828 424.69 243.69 414.014 252.333 407.914C260.974 401.814 271.142 406.135 271.142 406.135C271.142 406.135 280.801 400.797 292.493 401.559C304.185 402.322 329.349 407.659 334.941 409.947C334.941 409.947 310.54 439.178 278.005 439.941C245.47 440.703 236.828 424.69 236.828 424.69Z" fill="#C65B5A"/>
<path d="M296.17 436.601C319.208 428.777 334.941 409.948 334.941 409.948C329.349 407.66 304.185 402.322 292.493 401.56C291.452 401.492 290.434 401.486 289.43 401.508C303.486 403.008 314.353 407.66 314.353 407.66L295.289 407.152C283.85 413.252 258.178 412.236 255.892 412.489C253.604 412.744 246.486 415.54 246.486 415.54L252.597 407.748C252.509 407.808 252.42 407.853 252.333 407.914C243.69 414.014 236.828 424.69 236.828 424.69C236.828 424.69 241.23 432.829 255.549 437.225C247.801 432.668 243.436 425.961 243.436 425.961L258.433 419.098C275.717 420.114 294.781 415.54 294.781 415.54C305.965 411.218 319.436 414.777 319.436 414.777C315.554 422.25 306.222 429.942 296.17 436.601Z" fill="#85363F"/>
<path d="M297.92 422.475C295.884 422.839 293.773 423.149 291.618 423.412C292.192 425.252 292.813 427.059 293.177 428.895C295.685 428.171 297.828 427.329 299.656 426.455C299.146 425.117 298.568 423.791 297.92 422.475Z" fill="#EE7476"/>
<path d="M264.89 429.995C267.214 430.531 269.935 430.935 273.093 431.094C272.45 428.959 271.707 426.838 270.875 424.727C268.273 424.774 265.839 424.781 263.655 424.766C263.982 426.502 264.697 428.258 264.89 429.995Z" fill="#EE7476"/>
<path d="M283.227 430.782C286.829 430.405 289.966 429.785 292.694 429.026C292.246 427.76 291.762 426.497 291.202 425.245C290.949 424.677 290.659 424.105 290.249 423.574C287.345 423.9 284.387 424.141 281.474 424.32C282.005 426.449 282.891 428.63 283.227 430.782Z" fill="#EE7476"/>
<path d="M280.107 424.398C277.368 424.549 274.683 424.646 272.134 424.703C272.511 426.833 273.392 428.978 273.516 431.111C275.944 431.215 278.614 431.178 281.563 430.939C281.903 430.913 282.23 430.877 282.562 430.846C281.766 428.683 281.411 426.443 280.107 424.398Z" fill="#EE7476"/>
<path d="M299.013 422.275C299.558 423.575 299.935 424.902 300.101 426.239C306.459 423.093 308.761 419.606 308.761 419.606C305.954 420.71 302.623 421.583 299.013 422.275Z" fill="#EE7476"/>
<path d="M262.275 424.754C256.882 424.692 253.349 424.507 253.349 424.507C253.349 424.507 256.373 427.826 263.999 429.778C263.483 428.096 262.909 426.422 262.275 424.754Z" fill="#EE7476"/>
<path d="M186.627 279.807C186.627 279.807 198.638 283.43 218.654 274.279C218.654 274.279 230.474 271.8 235.43 267.035C235.43 267.035 224.944 261.506 209.122 263.222C193.299 264.938 185.292 276.375 186.627 279.807Z" fill="white"/>
<path d="M349.048 237.677C349.048 237.677 324.838 234.054 309.968 248.162C309.968 248.162 305.202 248.925 303.296 253.309C303.296 253.309 308.634 250.258 318.356 249.878C318.356 249.878 345.807 254.643 365.443 243.205L349.048 237.677Z" fill="white"/>
<path d="M235.43 267.035C235.43 267.035 224.944 261.507 209.122 263.221C193.299 264.937 185.292 276.376 186.627 279.807C186.627 279.807 187.799 280.16 190.02 280.368C190.379 278.521 191.127 276.453 192.632 274.756C192.632 274.756 192.595 278.021 195.211 280.469C200.714 280.221 208.69 278.833 218.654 274.279C218.654 274.279 219.471 274.105 220.75 273.771C221.7 271.501 221.868 268.815 220.846 265.7C220.846 265.7 228.351 266.02 232.739 269.048C233.747 268.428 234.674 267.761 235.43 267.035Z" fill="#C9C9C9"/>
<path d="M349.048 237.677C349.048 237.677 324.838 234.054 309.968 248.162C309.968 248.162 305.202 248.925 303.296 253.309C303.296 253.309 304.136 252.834 305.735 252.237C307.142 251.035 308.906 249.953 311.112 249.21C311.112 249.21 317.116 244.063 324.362 243.014C324.362 243.014 323.712 247.125 327.276 250.745C334.732 251.103 345.787 250.794 356.236 247.31C356.738 245.951 356.98 244.599 356.96 243.395C356.96 243.395 358.952 244.155 360.043 245.881C361.888 245.106 363.698 244.222 365.443 243.205L349.048 237.677Z" fill="#C9C9C9"/>
<path d="M355.816 240.441C355.816 240.275 355.797 240.114 355.791 239.95L349.048 237.677C349.048 237.677 338.885 236.162 327.685 238.927C327.632 239.425 327.601 239.929 327.601 240.441C327.601 244.573 329.389 248.278 332.221 250.858C338.439 250.849 346.039 250.245 353.517 248.146C354.967 245.93 355.816 243.286 355.816 240.441Z" fill="black"/>
<path d="M219.13 269.227C219.13 266.951 218.552 264.811 217.534 262.943C214.946 262.833 212.132 262.895 209.122 263.221C202.118 263.981 196.654 266.647 192.845 269.677C192.994 274.055 195.268 277.889 198.681 280.169C203.733 279.572 210.241 278.027 217.993 274.563C218.718 272.931 219.13 271.128 219.13 269.227Z" fill="black"/>
<path d="M198.828 272.944C198.828 274.103 197.889 275.042 196.73 275.042C195.573 275.042 194.634 274.103 194.634 272.944C194.634 271.786 195.573 270.847 196.73 270.847C197.889 270.847 198.828 271.786 198.828 272.944Z" fill="white"/>
<path d="M334.179 241.871C334.179 243.135 333.155 244.159 331.891 244.159C330.628 244.159 329.604 243.135 329.604 241.871C329.604 240.607 330.628 239.583 331.891 239.583C333.155 239.583 334.179 240.607 334.179 241.871Z" fill="white"/>
<path d="M157.65 163.519C157.65 163.519 167.564 131.874 182.052 117.005C182.052 117.005 177.096 124.63 173.664 131.111C173.664 131.111 183.196 110.523 222.085 107.854C260.974 105.185 275.082 96.0341 275.082 96.0341C275.082 96.0341 260.212 103.278 236.573 104.041C236.573 104.041 260.974 102.515 283.47 91.4595C305.965 80.4021 326.553 80.4021 326.553 80.4021C326.553 80.4021 313.209 77.7341 295.67 83.8341C295.67 83.8341 323.122 69.7275 355.912 84.9781C355.912 84.9781 420.346 98.3221 408.145 163.519C408.145 163.519 446.273 213.466 449.704 255.025L459.998 226.81L458.854 168.857L453.517 156.275L459.236 166.57C459.236 166.57 451.61 128.823 439.409 102.135C427.209 75.4461 392.894 67.0581 392.894 67.0581C392.894 67.0581 337.229 28.5501 262.881 39.2248C262.881 39.2248 293.001 36.9381 321.597 43.4195C321.597 43.4195 252.205 30.0741 200.734 57.1448C200.734 57.1448 166.801 58.2888 156.125 100.991C156.125 100.991 162.988 78.1141 179.001 68.5835C179.001 68.5835 139.73 99.0848 157.65 163.519Z" fill="black"/>
<path d="M229.711 336.235C229.711 336.235 222.085 360.637 249.156 362.925C249.156 362.925 225.897 361.018 229.711 336.235Z" fill="black"/>
<path d="M305.965 322.128C305.965 322.128 320.834 339.285 305.202 353.392C305.202 353.392 317.403 340.048 305.965 322.128Z" fill="black"/>
<path d="M275.082 351.105C275.082 351.105 278.514 345.005 286.139 343.861C293.765 342.717 296.051 348.054 296.051 348.054C296.051 348.054 293.383 351.105 289.951 349.579C286.521 348.054 282.326 344.623 275.082 351.105Z" fill="black"/>
<path d="M240.386 354.536C240.386 354.536 239.242 351.485 241.911 350.723C241.911 350.723 249.537 356.443 253.73 356.824C253.73 356.824 251.062 357.587 246.867 355.68C246.867 355.68 241.911 356.061 240.386 354.536" fill="black"/>
<path d="M318.674 249.814C318.674 249.814 309.778 250.322 302.66 254.135C302.66 254.135 302.152 250.322 309.523 247.526C309.523 247.526 318.419 236.342 341.804 236.342C365.188 236.342 377.898 245.239 377.898 245.239C377.898 245.239 368.747 246.763 361.376 244.73C361.376 244.73 351.971 237.359 335.704 238.375C319.436 239.392 310.54 248.543 310.54 248.543C310.54 248.543 306.727 249.306 304.694 252.102C304.694 252.102 312.827 249.306 318.674 249.814" fill="black"/>
<path d="M304.694 243.205C304.694 243.205 336.213 225.666 380.186 243.713C380.186 243.713 339.771 222.87 304.694 243.205Z" fill="black"/>
<path d="M288.935 228.971L299.356 211.94L296.052 222.108L300.373 211.179L331.383 205.332L322.741 211.179L333.671 205.332L373.831 201.774C373.831 201.774 392.387 207.111 397.724 216.008C397.724 216.008 374.593 212.958 361.631 217.024L352.48 213.212L359.851 217.787C359.851 217.787 334.687 220.583 322.487 225.667L326.045 219.058L320.199 226.43L288.935 228.971Z" fill="black"/>
<path d="M174.299 280.824C174.299 280.824 184.975 254.389 231.745 259.219C231.745 259.219 190.313 249.813 174.299 280.824Z" fill="black"/>
<path d="M226.66 271.927C226.66 271.927 234.031 269.639 236.066 267.861C238.099 266.081 231.998 265.318 231.998 265.318C231.998 265.318 213.188 258.71 196.412 265.827C179.636 272.945 175.062 284.382 175.062 284.382C175.062 284.382 181.162 286.923 187.263 280.823C187.263 280.823 190.567 269.131 204.292 265.318C218.018 261.506 231.235 266.335 231.235 266.335C231.235 266.335 234.286 266.59 234.031 267.353C233.778 268.114 226.66 271.927 226.66 271.927Z" fill="black"/>
<path d="M210.139 238.376L216.493 244.476L207.597 238.63L186.755 239.646L175.571 247.272L184.72 239.393L152.948 250.068C152.948 250.068 145.831 259.726 152.44 269.64C152.44 269.64 156.761 262.777 172.265 259.473L184.212 250.322L175.824 258.71C175.824 258.71 189.804 252.356 204.039 251.848L212.935 246.509L206.835 251.848L227.931 248.797L210.139 238.376Z" fill="black"/>
<path d="M236.065 424.69C236.065 424.69 246.994 416.81 254.366 414.523C254.366 414.523 275.972 418.081 297.069 409.185C297.069 409.185 328.333 408.931 334.178 409.185C340.025 409.439 343.076 412.998 343.076 412.998C343.076 412.998 340.025 412.489 332.653 410.965L297.322 410.455C297.322 410.455 278.258 418.081 255.382 415.794C255.382 415.794 245.978 419.353 242.928 421.894C239.878 424.435 236.065 424.69 236.065 424.69Z" fill="black"/>
<path d="M351.463 458.496V464.596L350.447 459.004C335.45 462.309 329.095 450.363 329.095 450.363C320.962 447.82 316.386 440.195 316.386 440.195C319.182 444.261 327.062 447.82 327.062 447.82C319.182 443.753 315.115 433.84 315.115 433.84L286.139 438.924L285.63 447.312L284.614 439.179L260.212 440.957C256.654 456.463 246.995 462.817 246.995 462.817C253.35 461.547 257.671 456.463 257.671 456.463C250.299 467.901 237.844 464.088 237.844 464.088L236.827 472.476L236.319 461.547C221.323 444.261 233.778 418.336 233.778 418.336L227.423 422.403L233.778 416.556C238.862 403.084 251.824 400.289 251.824 400.289L243.691 401.56L252.84 398.255L268.6 398.764L281.818 396.984C291.731 395.459 318.166 399.527 318.166 399.527L311.048 394.188L319.436 399.017C328.84 400.543 343.075 408.931 343.075 408.931L352.48 411.981L344.346 410.711C351.208 417.573 355.022 433.079 355.022 433.079L362.902 442.737L355.53 436.128C359.851 449.345 351.463 458.496 351.463 458.496ZM492.534 461.8C492.534 461.8 503.208 439.179 487.45 411.219C487.45 411.219 489.738 377.921 477.028 359.112C477.028 359.112 486.687 370.549 488.72 391.647C488.72 391.647 489.991 372.329 478.807 356.824C478.807 356.824 478.807 317.172 459.49 297.853C459.49 297.853 467.623 324.797 465.336 356.569L468.386 382.241L464.574 360.636C464.574 360.636 463.303 402.831 442.46 434.349L438.647 457.988L440.935 436.636C440.935 436.636 413.483 465.105 376.627 459.513V467.392L373.831 453.667L369.002 440.957L374.594 451.633L372.306 424.691L362.392 411.472L373.323 423.165L367.476 404.864L355.022 394.443L368.494 403.593L356.038 387.833L334.179 377.412L351.463 384.275L321.978 369.787L329.095 376.904L319.182 369.279L298.339 364.704L307.998 370.549L295.798 364.449L281.31 363.179L268.346 372.329L254.62 363.432L264.534 372.583L252.587 364.195L225.135 379.7L237.844 374.871L220.56 384.021L209.122 401.305L220.306 392.155L208.359 404.356L198.446 427.995L206.834 416.811L199.718 429.773L200.226 445.533L204.038 433.84L201.496 446.804L204.292 462.817C204.292 462.817 182.942 446.804 179.636 419.86C179.636 419.86 168.707 441.212 173.283 456.971C173.283 456.971 171.503 445.787 175.57 436.891C175.57 436.891 171.758 452.141 174.554 460.021C174.554 460.021 170.232 483.66 177.35 499.673C177.35 499.673 173.028 483.915 175.57 473.493C175.57 473.493 173.283 498.148 185.738 515.179C185.738 515.179 182.687 529.667 193.616 545.935C193.616 545.935 186.246 534.241 187.008 521.533C187.008 521.533 189.55 540.343 200.48 551.272C200.48 551.272 206.834 571.86 229.711 583.553C229.711 583.553 214.714 573.64 208.359 562.711C208.359 562.711 224.627 587.875 263.771 592.704C263.771 592.704 291.476 609.733 315.37 604.649C315.37 604.649 296.051 607.192 279.276 597.787C279.276 597.787 317.911 608.717 339.263 597.024C339.263 597.024 332.908 603.888 324.52 603.888C324.52 603.888 338.754 605.667 354.004 590.161C354.004 590.161 380.948 584.061 391.623 569.573C391.623 569.573 383.235 584.824 358.834 589.908C358.834 589.908 380.186 591.432 400.266 567.031C400.266 567.031 430.514 558.897 445.255 533.733C445.255 533.733 435.088 558.389 404.587 567.54C404.587 567.54 431.022 565.76 450.086 531.7C450.086 531.7 478.299 514.669 484.146 479.084C484.146 479.084 483.891 508.569 452.627 531.955C452.627 531.955 480.842 521.024 488.467 474.001C488.467 474.001 498.888 441.72 487.958 418.844C487.958 418.844 498.634 432.569 492.534 461.8" fill="black"/>
<path d="M225.558 483.246C220.551 483.246 215.527 481.395 210.551 477.705C178.899 454.234 156.805 359.175 158.035 334.558C159.478 305.705 150.627 261.819 149.997 258.739C131.142 201.858 160.61 137.374 161.874 134.655L167.406 137.226C167.106 137.871 137.645 202.393 155.842 256.983L155.934 257.325C156.331 259.229 165.655 304.321 164.127 334.863C162.803 361.338 185.974 451.885 214.185 472.805C219.898 477.039 225.302 478.157 230.714 476.214L232.774 481.957C230.378 482.815 227.969 483.246 225.558 483.246Z" fill="black"/>
<path d="M468.901 338.993C460.839 320.766 450.458 265.56 444.257 232.576C441.886 219.965 439.646 208.054 439.034 206.469C439.282 207.11 440.223 208.129 441.698 208.129V202.028C444.719 202.028 444.719 202.028 450.251 231.448C456.405 264.173 466.703 318.944 474.479 336.526L468.901 338.993Z" fill="black"/>
<path d="M473.531 328.664L467.818 326.522C469.827 321.165 472.931 299.472 474.175 276.906C475.927 245.062 472.927 233.965 470.878 232.428C462.714 226.305 455 231.712 454.676 231.945L451.072 227.025C455.044 224.098 465.059 220.441 474.538 227.548C476.548 229.056 482.667 233.644 480.266 277.242C479.075 298.869 476.052 321.937 473.531 328.664Z" fill="black"/>
<path d="M367.203 631.215C364.716 631.215 361.853 629.855 359.716 625.936L359.353 625.272C356.812 620.608 351.052 610.042 348.081 608.586C347.923 609.584 347.975 611.404 348.011 612.695C348.12 616.614 348.245 621.056 345.673 624.14C343.62 626.604 340.037 627.828 335.544 627.59C330.083 627.298 322.985 624.623 319.44 619.304C314.815 612.367 312.312 610.596 311.437 610.154C311.361 610.316 311.269 610.546 311.173 610.863C310.263 613.902 308.063 614.543 307.16 614.679C302.055 615.44 294.839 606.42 289.701 598.716L289.055 597.747L293.964 563.378L318.539 543.56L322.368 548.308L299.664 566.618L295.425 596.29C299.14 601.702 303.419 606.644 305.656 608.178C306.895 605.104 308.832 604.194 310.317 603.972C314.249 603.376 318.617 607.072 324.516 615.92C326.772 619.304 331.935 621.288 335.869 621.499C338.231 621.608 340.243 621.128 340.987 620.235C342.081 618.922 341.988 615.563 341.912 612.864C341.799 608.802 341.644 603.236 346.641 602.404C352.763 601.371 357.991 610.026 364.711 622.354L365.072 623.015C365.748 624.255 366.753 625.355 367.449 625.068C368.768 624.508 370.532 620.786 368.632 614.71C366.373 607.479 369.879 603.087 373.915 601.39C379.727 598.944 388.596 601.231 392.531 608.542C395.052 613.224 401.681 614.426 404.745 612.916C405.443 612.576 407.563 611.534 405.615 607.163C399.399 593.228 402.5 582.766 407.045 578.042C410.291 574.664 414.547 573.579 418.431 575.128C423.708 577.24 425.107 583.77 426.34 589.53C427.171 593.407 428.204 598.231 430.096 598.608C432.091 597.344 432.451 586.038 432.624 580.603C432.759 576.343 432.887 572.319 433.341 569.14C434.288 562.502 440.844 557.194 448.589 556.792C455.192 556.468 463.237 560.036 466.008 571.12C468.263 580.142 470.908 582.499 471.493 582.638C472.028 582.376 474.216 579.47 475.269 569.999C475.809 565.126 476.273 559.6 476.721 554.256C478.689 530.771 479.764 522.395 484.092 520.619C485.62 519.991 487.289 520.318 488.673 521.504C492.313 524.624 493.685 532.158 495.139 540.132C496.036 545.067 497.141 551.13 498.611 553.44C501.207 551.052 506.231 537.423 499.784 516.323C490.712 486.631 506.138 479.387 506.8 479.094L508.496 478.34L509.944 479.499C514.831 483.407 515.749 493.539 516.64 503.338C516.829 505.423 517.056 507.914 517.331 509.971C519.343 501.984 517.248 482.78 505.984 455.596C471.088 371.392 469.7 323.064 469.657 321.048L475.757 320.919C475.768 321.403 477.221 370.259 511.62 453.262C524.38 484.055 527.791 509.907 520.109 517.588C518.103 519.596 516.224 519.327 515.287 518.984C511.823 517.73 511.375 512.814 510.565 503.888C510.044 498.159 509.304 489.998 507.435 486.079C504.611 488.892 500.116 496.535 505.619 514.542C512.705 537.736 507.452 555.607 501.111 559.092C498.704 560.418 496.088 559.934 494.285 557.832C491.588 554.686 490.452 548.448 489.136 541.226C488.347 536.891 487.333 531.324 486.001 528.2C484.58 533.522 483.533 546.004 482.799 554.766C482.348 560.15 481.881 565.716 481.331 570.672C480.039 582.311 476.841 588.383 471.831 588.72C466.855 589.079 462.809 583.479 460.089 572.6C457.799 563.434 451.52 562.744 448.904 562.886C444.177 563.13 439.907 566.323 439.379 570.004C438.972 572.85 438.851 576.71 438.721 580.796C438.339 592.798 437.823 600.31 433.891 603.43C432.471 604.558 430.747 604.96 428.899 604.59C423.079 603.427 421.643 596.722 420.375 590.808C419.46 586.536 418.424 581.696 416.163 580.794C414.008 579.93 412.144 581.538 411.443 582.27C407.956 585.892 406.524 594.228 411.184 604.679C414.387 611.858 411.348 616.471 407.436 618.394C401.388 621.362 391.217 618.968 387.16 611.434C384.832 607.11 379.557 605.631 376.281 607.012C374.135 607.916 373.519 609.894 374.456 612.89C377.324 622.068 374.301 628.788 369.832 630.684C369.051 631.015 368.155 631.215 367.203 631.215Z" fill="black"/>
<path d="M351.985 609.192C351.832 607.446 349.681 606.364 348.02 606.921C346.359 607.48 345.313 609.224 345.113 610.965C344.912 612.706 345.408 614.449 345.996 616.101C346.584 617.752 347.276 619.389 347.493 621.128C347.667 622.526 347.575 624.086 348.479 625.166C349.76 626.697 352.429 626.228 353.708 624.694C354.988 623.162 355.195 621.01 355.119 619.016C354.977 615.329 354.057 611.673 352.435 608.361" fill="black"/>
<path d="M372.078 616.997C373.985 617.417 375.169 619.342 375.743 621.209C376.318 623.076 376.526 625.092 377.529 626.766C378.531 628.442 380.745 629.653 382.453 628.706C383.809 627.954 384.258 626.14 383.921 624.625C383.583 623.112 382.641 621.817 381.766 620.537C381.211 619.726 380.662 618.87 380.513 617.9C380.362 616.929 380.721 615.813 381.595 615.365C382.793 614.753 384.254 615.67 384.97 616.81C385.686 617.949 385.993 619.322 386.799 620.4C387.863 621.818 389.783 622.536 391.517 622.161C393.25 621.788 394.703 620.341 395.087 618.61C395.753 615.6 393.422 612.828 391.247 610.641C389.502 608.885 387.727 607.128 385.639 605.796C383.553 604.464 381.105 603.573 378.634 603.732C376.165 603.89 373.697 605.232 372.593 607.448C371.489 609.664 372.067 612.706 374.142 614.056" fill="black"/>
<path d="M406.059 585.768C403.905 588.541 404.185 592.569 405.578 595.793C406.971 599.017 409.299 601.732 411.147 604.718C412.147 606.336 413.05 608.085 414.546 609.258C416.042 610.432 418.369 610.826 419.785 609.558C421.083 608.394 421.101 606.288 420.345 604.716C419.589 603.144 418.238 601.958 416.994 600.737C415.75 599.514 414.535 598.124 414.191 596.414C413.831 594.622 415.23 592.302 416.986 592.809C418.334 593.197 419.042 595.028 420.445 595.05C421.27 595.062 421.975 594.374 422.253 593.597C422.529 592.818 422.473 591.968 422.414 591.144C422.233 588.66 422.049 586.149 421.305 583.773C420.561 581.396 419.195 579.129 417.105 577.774C415.014 576.421 412.13 576.15 410.047 577.514C407.963 578.878 407.11 582.013 408.569 584.033" fill="black"/>
<path d="M442.461 561.482C438.835 561.274 435.719 564.454 434.733 567.949C433.747 571.443 434.378 575.166 435.014 578.741C435.602 582.045 436.19 585.349 436.779 588.651C437.059 590.226 437.357 591.846 438.207 593.199C439.059 594.554 440.61 595.595 442.193 595.363C444.127 595.079 445.365 593.023 445.523 591.075C445.683 589.126 445.059 587.211 444.705 585.289C444.293 583.059 444.239 580.763 444.547 578.518C444.834 576.438 445.891 573.994 447.985 573.841C449.979 573.694 451.397 575.778 451.946 577.702C452.494 579.626 452.714 581.805 454.155 583.193C455.854 584.829 458.781 584.638 460.647 583.197C462.515 581.754 463.445 579.371 463.714 577.027C464.242 572.431 462.421 567.626 458.978 564.534C455.535 561.443 450.562 560.147 446.049 561.166C446.251 560.791 446.453 560.417 446.654 560.042" fill="black"/>
<path d="M479.924 545.164C479.423 553.684 480.968 562.318 484.393 570.134C484.801 571.064 485.275 572.03 486.127 572.581C487.792 573.658 490.2 572.522 491.029 570.722C491.859 568.922 491.481 566.792 490.768 564.942C490.056 563.093 489.024 561.36 488.525 559.442C488.027 557.524 488.169 555.269 489.553 553.85C490.429 552.953 491.693 552.496 492.513 551.546C494.001 549.824 493.525 547.213 492.931 545.016C491.516 539.793 489.907 534.624 488.107 529.521C487.576 528.016 486.487 526.194 484.929 526.544C483.783 526.801 483.264 528.11 482.949 529.242C481.276 535.258 480.148 541.424 479.584 547.642C480.172 547.581 480.76 547.52 481.349 547.46" fill="black"/>
<path d="M509.743 486.125C509.941 484.579 507.966 483.473 506.479 483.939C504.993 484.407 504.034 485.831 503.346 487.23C498.681 496.726 501.387 508.022 504.179 518.229C505.343 522.485 506.507 526.742 507.671 530.998C508.231 533.046 509.157 535.451 511.242 535.854C513.485 536.287 515.401 533.871 515.522 531.59C515.643 529.309 514.61 527.15 513.969 524.958C512.278 519.174 513.311 513.005 513.73 506.994C514.147 500.983 513.747 494.407 509.849 489.813C510.501 489.431 511.151 489.05 511.803 488.669" fill="black"/>
<path d="M445.149 569.872C443.241 570.44 442.177 572.62 442.276 574.608C442.375 576.598 443.372 578.42 444.427 580.11C445.481 581.799 446.639 583.479 447.12 585.411C447.412 586.58 447.615 588.035 448.739 588.47C449.796 588.879 450.992 587.955 451.281 586.86C451.571 585.766 451.211 584.611 450.805 583.554C450.399 582.496 449.933 581.411 450.008 580.282C450.139 578.291 451.859 576.812 452.672 574.992C453.705 572.676 453.088 569.728 451.211 568.023C450.559 567.43 449.732 566.97 448.849 566.974C447.968 566.978 447.057 567.551 446.872 568.414" fill="black"/>
<path d="M459.958 299.637C461.881 319.59 458.97 339.993 451.547 358.614C456.822 353.421 460.515 346.644 462.022 339.396C462.023 350.914 457.159 362.356 448.863 370.346C444.638 394.137 434.471 417.821 419.45 436.748C426.297 429.886 430.567 420.512 431.254 410.844C423.178 437.424 396.645 457.234 368.866 457.424C366.511 457.44 363.549 457.718 362.761 459.938C362.405 460.942 362.653 462.049 362.929 463.078C365.161 471.39 369.554 479.646 377.051 483.873C385.074 488.396 395.059 487.476 403.939 485.034C428.855 478.186 450.385 459.922 461.203 436.456C470.337 416.641 471.883 394.27 472.654 372.465C473.297 354.306 473.402 335.562 466.603 318.71" fill="black"/>
</g>
<defs>
<clipPath id="clip0_46_537">
<rect width="666.667" height="666.667" fill="white"/>
</clipPath>
</defs>
</svg>
